#!OML:ASF H:\charlestonDancing\Project 1\Capture day 1\Session 1\femaleDancer.ASF
:FULLY-SPECIFIED
:DEGREES
607
root -15.0422 17.468 0.584001 -94.1822 -94.0093 92.2982
lowerback 10.7622 -2.96526 2.5336
upperback -0.380012 -3.63328 0.0800308
thorax -6.59259 -1.86917 -0.744391
lowerneck 2.25965 -14.5846 -7.0564
upperneck 7.99034 -20.1761 5.69347
head 3.68605 -10.1578 2.32711
rclavicle -1.75179e-014 -4.77083e-015
rhumerus -217.272 156.206 -272.239
rradius 30.5042
rwrist 26.9835
rhand -22.8273 -38.1107
rfingers 7.12502
rthumb 183.61 111.94
lclavicle -1.75179e-014 -4.77083e-015
lhumerus -45.6014 2.14719 80.1591
lradius 47.0004
lwrist -0.0736455
lhand -28.2787 6.06709
lfingers 7.12502
lthumb -1.65506 36.0404
rfemur -8.77092 -1.25801 18.9798
rtibia 36.0045
rfoot -22.4453 -10.2173
rtoes -19.2613
lfemur -10.9525 -10.6495 -10.8187
ltibia 40.1573
lfoot -18.4328 -10.2309
ltoes -17.0207
608
root -15.0191 17.4688 0.576679 -99.4695 -94.0867 97.4893
lowerback 11.4578 -3.00446 2.53773
upperback -0.272347 -3.66853 0.0634347
thorax -6.87396 -1.88709 -0.725099
lowerneck 2.22801 -14.576 -6.87763
upperneck 7.87809 -20.1585 5.78441
head 3.64079 -10.1409 2.33342
rclavicle -4.90004e-014 5.1684e-015
rhumerus -217.39 155.463 -272.586
rradius 30.8671
rwrist 26.5267
rhand -22.5563 -38.1016
rfingers 7.12502
rthumb 183.872 111.954
lclavicle -4.90004e-014 5.1684e-015
lhumerus -45.8517 1.70722 80.5324
lradius 46.946
lwrist 0.100705
lhand -28.1812 5.84501
lfingers 7.12502
lthumb -1.56087 35.819
rfemur -8.67596 -1.26948 19.0591
rtibia 35.9923
rfoot -22.1226 -10.4509
rtoes -19.6696
lfemur -11.1234 -10.6426 -10.7125
ltibia 40.3159
lfoot -18.2957 -10.4762
ltoes -17.4777
609
root -14.9951 17.4559 0.571362 -105.343 -94.1265 103.529
lowerback 11.9173 -3.04668 2.50841
upperback -0.264777 -3.7178 0.0321876
thorax -7.12768 -1.91108 -0.708609
lowerneck 2.09593 -14.523 -7.08424
upperneck 8.10859 -20.1254 6.06258
head 3.8073 -10.1206 2.4317
rclavicle -7.57867e-015 2.78299e-015
rhumerus -217.539 154.885 -272.876
rradius 31.2483
rwrist 26.485
rhand -22.1779 -37.8338
rfingers 7.12502
rthumb 184.237 112.229
lclavicle -7.57867e-015 2.78299e-015
lhumerus -46.1014 1.36898 80.8688
lradius 46.6884
lwrist -0.347087
lhand -27.6013 5.95733
lfingers 7.12502
lthumb -1.0008 35.9347
rfemur -8.51346 -1.68328 19.063
rtibia 36.0314
rfoot -21.8643 -10.9936
rtoes -22.9423
lfemur -11.6179 -10.5881 -10.6427
ltibia 40.4564
lfoot -18.1514 -10.6863
ltoes -18.3677
610
root -14.977 17.4635 0.565289 -112.002 -94.2146 110.634
lowerback 12.1383 -3.11329 2.4392
upperback -0.359142 -3.80818 0.023742
thorax -7.35285 -1.95324 -0.64689
lowerneck 2.03009 -14.3813 -7.50082
upperneck 8.66804 -20.0441 6.78872
head 3.71343 -10.0502 2.42569
rclavicle 2.18166e-014 3.97569e-016
rhumerus -217.698 154.49 -273.102
rradius 31.6722
rwrist 26.6251
rhand -22.1617 -37.6154
rfingers 7.12502
rthumb 184.253 112.447
lclavicle 2.18166e-014 3.97569e-016
lhumerus -46.4311 1.2565 81.1079
lradius 46.3073
lwrist -1.52414
lhand -27.1146 5.76785
lfingers 7.12502
lthumb -0.530785 35.7469
rfemur -8.92669 -1.85882 19.0414
rtibia 36.0976
rfoot -21.7245 -11.3154
rtoes -23.555
lfemur -12.4002 -10.4906 -10.5424
ltibia 40.5503
lfoot -17.8879 -11.0629
ltoes -18.3723
611
root -14.9604 17.4812 0.558732 -118.13 -94.3826 117.476
lowerback 12.0892 -3.18567 2.36224
upperback -0.486931 -3.91116 0.0598358
thorax -7.45769 -2.00012 -0.544662
lowerneck 1.92819 -14.2135 -7.66116
upperneck 8.89273 -19.8483 6.97226
head 3.81747 -9.94845 2.49239
rclavicle 3.5334e-014 1.27222e-014
rhumerus -217.785 154.277 -273.183
rradius 32.2
rwrist 26.7828
rhand -22.2984 -37.5443
rfingers 7.12502
rthumb 184.121 112.516
lclavicle 3.5334e-014 1.27222e-014
lhumerus -46.6924 1.43927 81.2238
lradius 45.6851
lwrist -2.96944
lhand -26.9017 5.06687
lfingers 7.12502
lthumb -0.325132 35.0464
rfemur -9.80696 -1.9608 19.0553
rtibia 36.2192
rfoot -21.5795 -11.6281
rtoes -23.4839
lfemur -13.4561 -10.3633 -10.378
ltibia 40.5903
lfoot -17.4722 -11.5547
ltoes -17.5376
